PathFileType	4	(X/Y/Z)	C:\Git\research_data\Projects\torsion_deformities_healthy_kinematics\simulations\TD01\pre\dynamic_14_l\marker_experimental.trc
DataRate	CameraRate	NumFrames	NumMarkers	Units	OrigDataRate	OrigDataStartFrame	OrigNumFrames
200	200	4	30	mm	200	541	618
Frame#	Time	C7			T10			CLAV			STRN			RBAK			LASI			RASI			SACR			RT1			RT2			RT3			RKNE			RS1			RS2			RS3			RANK			RHEE			RTOE			LT1			LT2			LT3			LKNE			LS1			LS2			LS3			LANK			LHEE			LTOE			RHJC			LHJC		
		X1	Y1	Z1	X2	Y2	Z2	X3	Y3	Z3	X4	Y4	Z4	X5	Y5	Z5	X6	Y6	Z6	X7	Y7	Z7	X8	Y8	Z8	X9	Y9	Z9	X10	Y10	Z10	X11	Y11	Z11	X12	Y12	Z12	X13	Y13	Z13	X14	Y14	Z14	X15	Y15	Z15	X16	Y16	Z16	X17	Y17	Z17	X18	Y18	Z18	X19	Y19	Z19	X20	Y20	Z20	X21	Y21	Z21	X22	Y22	Z22	X23	Y23	Z23	X24	Y24	Z24	X25	Y25	Z25	X26	Y26	Z26	X27	Y27	Z27	X28	Y28	Z28	X29	Y29	Z29	X30	Y30	Z30	

541	2.700000	1617.281982	1249.906250	-193.568146	1571.072876	1065.428955	-193.456558	1735.477539	1198.582642	-196.818115	1776.903809	1063.654419	-203.077301	1584.036377	1179.044189	-100.176582	1701.154541	859.512878	-297.446075	1704.742310	864.247131	-95.004257	1540.910400	901.075378	-190.506668	1734.169678	689.549927	-40.686726	1726.302490	624.497314	-29.272900	1774.390137	637.231812	-46.446648	1804.401978	497.063385	-43.704048	1713.489624	387.924896	-29.990301	1672.771729	336.824921	-43.289463	1720.492065	321.172699	-35.829407	1616.195557	149.620819	-71.158463	1579.590454	149.586487	-132.139053	1734.187744	80.754257	-63.042667	1656.040283	661.717224	-328.505005	1629.998047	601.412598	-318.283234	1680.375000	603.313293	-307.791870	1651.603760	455.292572	-276.962158	1586.881470	321.105774	-298.186005	1565.845703	258.824738	-287.292236	1616.012329	264.272400	-279.077515	1540.551636	86.636063	-250.380157	1497.696777	80.391212	-211.471634	1684.959717	58.622498	-217.499451	1638.946118	805.682358	-119.610203	1636.319554	802.216466	-267.815522	
542	2.705000	1623.757568	1249.527222	-193.517807	1577.372070	1065.093750	-193.233475	1741.859619	1198.039185	-196.861984	1783.157959	1063.075562	-203.292374	1590.438354	1178.626343	-100.218414	1706.746582	858.999390	-297.418518	1711.109619	863.696167	-94.908188	1547.021362	900.798462	-189.798187	1741.348877	689.591064	-40.621239	1733.840698	624.492493	-29.135586	1781.766968	637.446167	-46.619003	1812.047729	497.355469	-44.093372	1723.996460	385.843170	-29.767035	1684.806885	333.505646	-43.022911	1732.958374	319.299988	-35.531296	1634.125122	144.393982	-70.262718	1597.539185	143.005249	-131.303070	1754.284424	79.609306	-61.779194	1660.406250	661.424133	-328.295166	1633.749634	601.282593	-318.150909	1684.215332	602.802612	-307.550598	1653.748901	454.884155	-277.071838	1588.035767	321.153351	-298.231903	1566.651611	258.988251	-287.218353	1616.893433	264.111023	-279.277710	1540.686890	86.857979	-250.371490	1497.826050	80.837692	-211.461044	1685.003906	58.562790	-217.523773	1645.128753	805.216673	-119.287942	1641.934752	801.778355	-267.537450	
543	2.710000	1630.243408	1249.100342	-193.460373	1583.682373	1064.709839	-192.987488	1748.255005	1197.445557	-196.899826	1789.424805	1062.446411	-203.496002	1596.853516	1178.163696	-100.248474	1712.352905	858.468994	-297.363495	1717.482544	863.074707	-94.778954	1553.153320	900.482361	-189.066376	1748.413818	689.474854	-40.564430	1741.208984	624.322876	-29.108639	1789.013428	637.491394	-46.778526	1819.460327	497.460083	-44.544483	1734.444946	383.627930	-29.524601	1696.851318	330.069031	-42.714607	1745.409180	317.377899	-35.255451	1652.264526	139.209229	-69.348061	1615.720459	136.459824	-130.431137	1774.473877	78.627922	-60.556702	1664.749878	661.139893	-328.086792	1637.514282	601.171326	-318.019501	1688.060547	602.325745	-307.317749	1655.908447	454.494141	-277.189209	1589.319092	321.218353	-298.299225	1567.585449	259.171112	-287.199799	1617.885864	263.985229	-279.445068	1540.833252	87.099686	-250.384995	1497.962402	81.320190	-211.475021	1685.043335	58.505348	-217.557907	1651.317046	804.687941	-118.951197	1647.562012	801.316434	-267.248548	
544	2.715000	1636.739136	1248.627075	-193.394424	1590.004639	1064.278320	-192.718323	1754.663818	1196.804077	-196.930038	1795.705078	1061.769775	-203.686310	1603.281982	1177.657593	-100.265045	1717.977051	857.926147	-297.283081	1723.866089	862.386902	-94.619667	1559.309326	900.128784	-188.312317	1755.349487	689.193970	-40.515270	1748.388550	623.982727	-29.194443	1796.114868	637.359070	-46.921417	1826.631714	497.376282	-45.058163	1744.832153	381.296875	-29.268026	1708.904053	326.538300	-42.364708	1757.836792	315.428558	-35.005604	1670.608398	134.105011	-68.414680	1634.127197	129.985428	-129.518448	1794.746094	77.847427	-59.380184	1669.067383	660.864136	-327.883179	1641.281372	601.079773	-317.888733	1691.898071	601.875610	-307.100525	1658.088013	454.123871	-277.312073	1590.730835	321.301910	-298.380524	1568.646362	259.373718	-287.229065	1618.988525	263.894867	-279.574432	1540.991089	87.364403	-250.415146	1498.106934	81.840576	-211.505447	1685.079834	58.450832	-217.601318	1657.516517	804.099633	-118.602440	1653.205784	800.834393	-266.950602	
